<svg xmlns="http://www.w3.org/2000/svg" xmlns:xlink="http://www.w3.org/1999/xlink" width="200" zoomAndPan="magnify" viewBox="0 0 150 60" height="80" preserveAspectRatio="xMidYMid meet" version="1.0"><defs><g/><clipPath id="d8cb2bc330"><path d="M 10.449219 23.746094 L 18.597656 23.746094 L 18.597656 43.296875 L 10.449219 43.296875 Z M 10.449219 23.746094 " clip-rule="nonzero"/></clipPath><clipPath id="7e7c116c8a"><path d="M 0.449219 0.746094 L 8.597656 0.746094 L 8.597656 20.296875 L 0.449219 20.296875 Z M 0.449219 0.746094 " clip-rule="nonzero"/></clipPath><clipPath id="559c1585e5"><rect x="0" width="9" y="0" height="21"/></clipPath><clipPath id="632b72b00d"><path d="M 10.449219 15.660156 L 18.597656 15.660156 L 18.597656 23.808594 L 10.449219 23.808594 Z M 10.449219 15.660156 " clip-rule="nonzero"/></clipPath><clipPath id="5b6392ca2b"><path d="M 18.597656 15.660156 L 18.597656 23.808594 L 10.449219 23.808594 Z M 18.597656 15.660156 " clip-rule="nonzero"/></clipPath><clipPath id="a4f0857808"><path d="M 0.449219 0.660156 L 8.597656 0.660156 L 8.597656 8.808594 L 0.449219 8.808594 Z M 0.449219 0.660156 " clip-rule="nonzero"/></clipPath><clipPath id="fa07f7c896"><path d="M 8.597656 0.660156 L 8.597656 8.808594 L 0.449219 8.808594 Z M 8.597656 0.660156 " clip-rule="nonzero"/></clipPath><clipPath id="4b052433a0"><rect x="0" width="9" y="0" height="9"/></clipPath><clipPath id="2f203ba42b"><rect x="0" width="101" y="0" height="27"/></clipPath><clipPath id="3d8b792410"><path d="M 28.546875 23.808594 L 36.457031 23.808594 L 36.457031 42.726562 L 28.546875 42.726562 Z M 28.546875 23.808594 " clip-rule="nonzero"/></clipPath><clipPath id="110a0d762d"><path d="M 0.546875 0.808594 L 8.457031 0.808594 L 8.457031 19.726562 L 0.546875 19.726562 Z M 0.546875 0.808594 " clip-rule="nonzero"/></clipPath><clipPath id="9ad2556eaa"><rect x="0" width="9" y="0" height="20"/></clipPath><clipPath id="ccf7348adb"><path d="M 28.3125 15.660156 L 36.457031 15.660156 L 36.457031 23.808594 L 28.3125 23.808594 Z M 28.3125 15.660156 " clip-rule="nonzero"/></clipPath><clipPath id="561f6be1ee"><path d="M 36.457031 15.660156 L 36.457031 23.808594 L 28.3125 23.808594 Z M 36.457031 15.660156 " clip-rule="nonzero"/></clipPath><clipPath id="abe1c0f0c0"><path d="M 0.3125 0.660156 L 8.457031 0.660156 L 8.457031 8.808594 L 0.3125 8.808594 Z M 0.3125 0.660156 " clip-rule="nonzero"/></clipPath><clipPath id="aa5d2decd0"><path d="M 8.457031 0.660156 L 8.457031 8.808594 L 0.3125 8.808594 Z M 8.457031 0.660156 " clip-rule="nonzero"/></clipPath><clipPath id="4238dfb9b0"><rect x="0" width="9" y="0" height="9"/></clipPath><clipPath id="b3b1f62f23"><path d="M 17.785156 23.582031 L 28.578125 23.582031 L 28.578125 33.519531 L 17.785156 33.519531 Z M 17.785156 23.582031 " clip-rule="nonzero"/></clipPath><clipPath id="2be06ec143"><path d="M 28.550781 23.582031 L 28.550781 33.519531 L 17.785156 33.519531 Z M 28.550781 23.582031 " clip-rule="nonzero"/></clipPath><clipPath id="c8e10bb660"><path d="M 0.785156 0.582031 L 11.558594 0.582031 L 11.558594 10.519531 L 0.785156 10.519531 Z M 0.785156 0.582031 " clip-rule="nonzero"/></clipPath><clipPath id="3f30c7ac31"><path d="M 11.550781 0.582031 L 11.550781 10.519531 L 0.785156 10.519531 Z M 11.550781 0.582031 " clip-rule="nonzero"/></clipPath><clipPath id="69df903c53"><rect x="0" width="12" y="0" height="11"/></clipPath></defs><g clip-path="url(#d8cb2bc330)"><g transform="matrix(1, 0, 0, 1, 10, 23)"><g clip-path="url(#559c1585e5)"><g clip-path="url(#7e7c116c8a)"><path fill="#0a369d" d="M 0.449219 0.746094 L 8.597656 0.746094 L 8.597656 20.285156 L 0.449219 20.285156 Z M 0.449219 0.746094 " fill-opacity="1" fill-rule="nonzero"/></g></g></g></g><g clip-path="url(#632b72b00d)"><g clip-path="url(#5b6392ca2b)"><g transform="matrix(1, 0, 0, 1, 10, 15)"><g clip-path="url(#4b052433a0)"><g clip-path="url(#a4f0857808)"><g clip-path="url(#fa07f7c896)"><path fill="#0a369d" d="M 0.449219 8.808594 L 0.449219 0.660156 L 8.597656 0.660156 L 8.597656 8.808594 Z M 0.449219 8.808594 " fill-opacity="1" fill-rule="nonzero"/></g></g></g></g></g></g><g transform="matrix(1, 0, 0, 1, 40, 19)"><g clip-path="url(#2f203ba42b)"><g fill="#0a369d" fill-opacity="1"><g transform="translate(0.929955, 19.883391)"><g><path d="M 13.617188 0 L 13.617188 -13.636719 L 10.691406 -13.636719 L 10.691406 -8.28125 L 4.253906 -8.28125 L 4.253906 -13.636719 L 1.347656 -13.636719 L 1.347656 0 L 4.253906 0 L 4.253906 -5.726562 L 10.691406 -5.726562 L 10.691406 0 Z M 13.617188 0 "/></g></g></g><g fill="#0a369d" fill-opacity="1"><g transform="translate(15.853128, 19.883391)"><g><path d="M 5.867188 0.246094 C 9.140625 0.246094 11.101562 -2.125 11.101562 -4.949219 C 11.101562 -7.75 9.140625 -10.121094 5.867188 -10.121094 C 2.617188 -10.121094 0.652344 -7.75 0.652344 -4.949219 C 0.652344 -2.125 2.617188 0.246094 5.867188 0.246094 Z M 5.867188 -2.066406 C 4.253906 -2.066406 3.351562 -3.394531 3.351562 -4.949219 C 3.351562 -6.480469 4.253906 -7.808594 5.867188 -7.808594 C 7.484375 -7.808594 8.402344 -6.480469 8.402344 -4.949219 C 8.402344 -3.394531 7.484375 -2.066406 5.867188 -2.066406 Z M 5.867188 -2.066406 "/></g></g></g><g fill="#0a369d" fill-opacity="1"><g transform="translate(27.56679, 19.883391)"><g><path d="M 16.152344 0 L 16.152344 -7.136719 C 16.152344 -9.160156 15.070312 -10.121094 13.25 -10.121094 C 11.734375 -10.121094 10.425781 -9.222656 9.855469 -8.320312 C 9.488281 -9.445312 8.566406 -10.121094 7.113281 -10.121094 C 5.601562 -10.121094 4.292969 -9.179688 3.882812 -8.585938 L 3.882812 -9.875 L 1.289062 -9.875 L 1.289062 0 L 3.882812 0 L 3.882812 -6.644531 C 4.273438 -7.195312 5.03125 -7.808594 5.929688 -7.808594 C 6.992188 -7.808594 7.402344 -7.15625 7.402344 -6.234375 L 7.402344 0 L 10.019531 0 L 10.019531 -6.664062 C 10.386719 -7.195312 11.144531 -7.808594 12.0625 -7.808594 C 13.125 -7.808594 13.535156 -7.15625 13.535156 -6.234375 L 13.535156 0 Z M 16.152344 0 "/></g></g></g><g fill="#0a369d" fill-opacity="1"><g transform="translate(44.963525, 19.883391)"><g><path d="M 0.652344 -4.949219 C 0.652344 -1.777344 2.921875 0.246094 5.929688 0.246094 C 7.460938 0.246094 8.996094 -0.203125 9.996094 -1.125 L 8.851562 -2.800781 C 8.21875 -2.1875 7.136719 -1.820312 6.214844 -1.820312 C 4.539062 -1.820312 3.535156 -2.863281 3.375 -4.109375 L 10.714844 -4.109375 L 10.714844 -4.683594 C 10.714844 -7.914062 8.710938 -10.121094 5.765625 -10.121094 C 2.761719 -10.121094 0.652344 -7.808594 0.652344 -4.949219 Z M 5.765625 -8.054688 C 7.484375 -8.054688 8.136719 -6.808594 8.199219 -5.867188 L 3.332031 -5.867188 C 3.457031 -6.847656 4.152344 -8.054688 5.765625 -8.054688 Z M 5.765625 -8.054688 "/></g></g></g><g fill="#0a369d" fill-opacity="1"><g transform="translate(56.247897, 19.883391)"><g><path d="M 10.019531 0 L 10.019531 -2.554688 L 4.253906 -2.554688 L 4.253906 -13.636719 L 1.347656 -13.636719 L 1.347656 0 Z M 10.019531 0 "/></g></g></g><g fill="#0a369d" fill-opacity="1"><g transform="translate(66.694083, 19.883391)"><g><path d="M 0.652344 -4.949219 C 0.652344 -1.777344 2.921875 0.246094 5.929688 0.246094 C 7.460938 0.246094 8.996094 -0.203125 9.996094 -1.125 L 8.851562 -2.800781 C 8.21875 -2.1875 7.136719 -1.820312 6.214844 -1.820312 C 4.539062 -1.820312 3.535156 -2.863281 3.375 -4.109375 L 10.714844 -4.109375 L 10.714844 -4.683594 C 10.714844 -7.914062 8.710938 -10.121094 5.765625 -10.121094 C 2.761719 -10.121094 0.652344 -7.808594 0.652344 -4.949219 Z M 5.765625 -8.054688 C 7.484375 -8.054688 8.136719 -6.808594 8.199219 -5.867188 L 3.332031 -5.867188 C 3.457031 -6.847656 4.152344 -8.054688 5.765625 -8.054688 Z M 5.765625 -8.054688 "/></g></g></g><g fill="#0a369d" fill-opacity="1"><g transform="translate(77.978455, 19.883391)"><g><path d="M 10.550781 0 L 10.550781 -6.972656 C 10.550781 -8.894531 9.507812 -10.121094 7.339844 -10.121094 C 5.726562 -10.121094 4.519531 -9.34375 3.882812 -8.585938 L 3.882812 -9.875 L 1.289062 -9.875 L 1.289062 0 L 3.882812 0 L 3.882812 -6.644531 C 4.3125 -7.238281 5.113281 -7.808594 6.132812 -7.808594 C 7.238281 -7.808594 7.953125 -7.339844 7.953125 -5.96875 L 7.953125 0 Z M 10.550781 0 "/></g></g></g><g fill="#0a369d" fill-opacity="1"><g transform="translate(89.79433, 19.883391)"><g><path d="M 0.429688 -1.289062 C 1.472656 -0.328125 3.128906 0.246094 4.84375 0.246094 C 7.585938 0.246094 9.117188 -1.105469 9.117188 -2.921875 C 9.117188 -5.378906 6.847656 -5.828125 5.152344 -6.152344 C 4.046875 -6.378906 3.269531 -6.605469 3.269531 -7.21875 C 3.269531 -7.789062 3.882812 -8.136719 4.824219 -8.136719 C 6.03125 -8.136719 7.15625 -7.625 7.75 -6.992188 L 8.769531 -8.769531 C 7.808594 -9.546875 6.480469 -10.121094 4.804688 -10.121094 C 2.207031 -10.121094 0.757812 -8.667969 0.757812 -7.011719 C 0.757812 -4.660156 2.945312 -4.253906 4.640625 -3.925781 C 5.765625 -3.699219 6.625 -3.457031 6.625 -2.761719 C 6.625 -2.148438 6.09375 -1.757812 4.96875 -1.757812 C 3.742188 -1.757812 2.269531 -2.433594 1.554688 -3.109375 Z M 0.429688 -1.289062 "/></g></g></g></g></g><g clip-path="url(#3d8b792410)"><g transform="matrix(1, 0, 0, 1, 28, 23)"><g clip-path="url(#9ad2556eaa)"><g clip-path="url(#110a0d762d)"><path fill="#0a369d" d="M 0.546875 0.808594 L 8.457031 0.808594 L 8.457031 19.71875 L 0.546875 19.71875 Z M 0.546875 0.808594 " fill-opacity="1" fill-rule="nonzero"/></g></g></g></g><g clip-path="url(#ccf7348adb)"><g clip-path="url(#561f6be1ee)"><g transform="matrix(1, 0, 0, 1, 28, 15)"><g clip-path="url(#4238dfb9b0)"><g clip-path="url(#abe1c0f0c0)"><g clip-path="url(#aa5d2decd0)"><path fill="#0a369d" d="M 0.3125 8.808594 L 0.3125 0.660156 L 8.457031 0.660156 L 8.457031 8.808594 Z M 0.3125 8.808594 " fill-opacity="1" fill-rule="nonzero"/></g></g></g></g></g></g><g clip-path="url(#b3b1f62f23)"><g clip-path="url(#2be06ec143)"><g transform="matrix(1, 0, 0, 1, 17, 23)"><g clip-path="url(#69df903c53)"><g clip-path="url(#c8e10bb660)"><g clip-path="url(#3f30c7ac31)"><path fill="#0a369d" d="M 0.785156 10.519531 L 0.785156 0.582031 L 11.539062 0.582031 L 11.539062 10.519531 Z M 0.785156 10.519531 " fill-opacity="1" fill-rule="nonzero"/></g></g></g></g></g></g></svg>